<?xml version="1.0" standalone="no"?>
<!DOCTYPE svg PUBLIC "-//W3C//DTD SVG 20010904//EN"
 "http://www.w3.org/TR/2001/REC-SVG-20010904/DTD/svg10.dtd">
<svg version="1.0" xmlns="http://www.w3.org/2000/svg"
 width="225.000000pt" height="225.000000pt" viewBox="0 0 225.000000 225.000000"
 preserveAspectRatio="xMidYMid meet">

<g transform="translate(0.000000,225.000000) scale(0.100000,-0.100000)"
fill="#000000" stroke="none">
<path d="M1354 2156 c-23 -23 -34 -43 -34 -64 0 -26 -14 -41 -112 -119 -143
-113 -354 -292 -528 -447 -164 -146 -555 -501 -627 -568 l-53 -49 30 -118 c49
-194 63 -306 63 -518 1 -106 4 -193 8 -193 8 0 18 85 22 184 l2 60 345 57
c512 85 1008 188 1485 308 88 22 160 39 161 38 1 -1 6 -71 10 -155 8 -132 7
-153 -6 -157 -36 -10 -283 -48 -655 -100 -532 -74 -637 -90 -855 -131 -204
-39 -467 -100 -490 -116 -20 -12 22 -7 240 31 96 17 378 60 627 96 595 85
1011 157 1177 203 37 10 50 36 14 27 l-24 -6 -12 258 c-12 269 -29 388 -73
506 -13 34 -18 62 -13 67 13 13 93 -11 98 -30 28 -97 58 -441 56 -640 -2 -156
-1 -170 11 -115 23 115 5 505 -34 712 l-13 70 28 16 c57 32 60 111 8 170 l-29
34 21 20 c12 12 22 39 25 64 6 53 -21 94 -70 107 -25 7 -31 13 -29 29 10 68
-68 139 -127 116 l-29 -10 15 35 c32 77 -24 152 -114 152 -36 0 -41 2 -36 20
14 52 -55 118 -109 105 -18 -5 -26 0 -36 23 -21 49 -86 67 -130 36 -21 -14
-24 -14 -48 5 -19 15 -41 21 -76 21 -43 0 -54 -4 -84 -34z m147 -16 c32 -31
31 -50 -2 -50 -10 0 -19 -4 -19 -10 0 -5 17 -10 38 -10 20 0 47 -3 60 -6 27
-8 30 12 3 21 -29 9 -33 42 -8 60 12 8 30 15 40 15 27 0 67 -45 67 -76 0 -21
3 -25 18 -19 9 4 29 10 43 12 34 6 69 -30 69 -69 0 -28 -13 -37 -25 -18 -3 6
-16 10 -28 10 -21 0 -21 -1 3 -16 14 -10 42 -33 63 -53 27 -25 37 -30 37 -19
0 9 -5 20 -11 24 -7 4 -7 10 -1 16 17 17 79 -1 102 -29 24 -30 27 -90 5 -119
-8 -10 -15 -22 -15 -26 0 -7 39 -3 81 7 19 5 33 1 54 -17 29 -25 37 -63 22
-105 -7 -21 -5 -23 22 -23 43 0 60 -9 77 -42 18 -35 12 -76 -17 -113 -23 -28
-39 -32 -39 -10 0 8 -4 15 -10 15 -5 0 -10 -13 -10 -29 0 -16 -3 -36 -6 -45
-3 -9 -2 -16 4 -16 5 0 12 9 15 20 7 27 29 25 61 -6 58 -59 18 -150 -65 -148
-25 1 -45 8 -52 18 -11 16 -15 15 -36 -8 -45 -48 -111 -22 -111 42 0 24 -2 24
-55 17 -50 -6 -57 -4 -80 19 -43 43 -30 128 20 119 37 -8 31 2 -21 31 -55 31
-63 32 -41 8 21 -23 5 -42 -34 -42 -40 0 -54 23 -34 54 16 24 16 26 0 32 -11
5 -21 1 -27 -9 -5 -10 -21 -17 -37 -17 -56 0 -83 65 -57 138 8 23 14 42 13 43
-1 0 -24 1 -50 2 -57 3 -71 19 -51 58 21 41 19 62 -5 49 -28 -14 -52 -12 -73
7 -22 20 -23 45 -2 85 12 22 19 27 27 19 20 -20 28 -11 11 14 -9 14 -13 32 -9
45 8 25 -10 27 -24 3 -10 -17 -12 -16 -31 7 -80 101 41 230 131 140z m-171
-115 c0 -8 15 -26 34 -41 l34 -28 -19 -24 c-43 -56 -11 -142 53 -142 24 0 27
-3 19 -22 -15 -43 16 -88 60 -88 28 0 28 -1 22 -48 -9 -75 29 -132 87 -132 12
0 33 -13 47 -30 15 -18 34 -30 49 -30 20 0 24 -5 24 -27 0 -71 80 -128 144
-103 19 7 26 6 26 -3 0 -6 7 -25 15 -40 11 -21 11 -29 2 -32 -37 -13 -1063
-211 -1287 -249 -289 -49 -573 -89 -597 -84 -9 2 134 129 333 298 390 331 653
563 824 728 63 61 118 111 123 112 4 0 7 -7 7 -15z m739 -936 c12 -45 21 -95
21 -110 0 -33 42 -22 -390 -94 -553 -92 -941 -165 -1350 -256 -124 -27 -230
-52 -236 -54 -8 -2 -20 32 -34 92 -12 53 -31 121 -41 151 -10 30 -19 56 -19
57 0 1 53 5 117 9 146 8 272 26 528 76 110 22 315 60 455 85 224 41 420 80
800 160 l105 22 11 -27 c7 -15 21 -65 33 -111z m32 -171 c0 -7 4 -48 7 -90 l7
-76 -290 -57 c-341 -66 -1083 -220 -1443 -299 -140 -31 -255 -56 -256 -56 -2
0 -6 43 -10 95 -3 52 -9 101 -12 109 -4 11 4 16 28 21 18 3 162 28 319 55 295
51 726 132 1304 244 182 35 333 64 338 65 4 1 7 -5 8 -11z"/>
<path d="M1235 1878 c-29 -15 -45 -38 -45 -64 0 -52 55 -34 66 21 8 46 4 56
-21 43z m6 -40 c-7 -34 -25 -47 -34 -25 -6 15 18 57 32 57 5 0 6 -14 2 -32z"/>
<path d="M1284 1803 c7 -28 48 -73 67 -73 18 0 9 39 -17 69 -33 40 -59 42 -50
4z m56 -46 c0 -5 -9 -2 -20 8 -11 10 -20 25 -20 34 1 12 5 10 20 -8 11 -13 20
-28 20 -34z"/>
<path d="M1030 1676 c0 -8 -9 -30 -20 -48 -28 -46 -27 -80 3 -76 19 3 22 9 22
49 l0 47 28 -20 c30 -21 72 -21 72 1 0 18 -42 48 -77 57 -22 5 -28 3 -28 -10z
m80 -43 c0 -18 -13 -16 -44 8 -37 29 -32 42 9 22 19 -9 35 -23 35 -30z m-80
-28 c0 -14 -4 -25 -10 -25 -11 0 -14 33 -3 43 11 11 13 8 13 -18z"/>
<path d="M1330 1584 c-42 -18 -52 -32 -39 -56 13 -24 34 -23 59 2 29 29 25 48
-4 21 -26 -25 -56 -20 -35 5 6 8 17 14 23 14 7 0 21 7 32 15 25 19 9 18 -36
-1z"/>
<path d="M798 1488 c7 -7 12 -19 12 -28 0 -21 38 -55 68 -63 35 -8 27 20 -17
64 -21 22 -47 39 -57 39 -14 0 -15 -3 -6 -12z m54 -35 c25 -30 33 -47 17 -38
-24 14 -49 38 -49 47 0 14 16 9 32 -9z"/>
<path d="M1170 1441 c0 -25 45 -61 76 -61 32 0 30 12 -7 49 -35 35 -69 41 -69
12z m64 -30 c11 -12 15 -21 9 -21 -14 0 -63 39 -63 51 0 13 30 -4 54 -30z"/>
<path d="M761 1410 c-22 -39 -22 -43 -7 -58 36 -36 75 38 44 81 -13 17 -15 15
-37 -23z m33 -5 c6 -17 -2 -45 -14 -45 -15 0 -22 19 -15 40 8 24 21 26 29 5z"/>
<path d="M1517 1410 c-15 -12 -27 -28 -27 -37 0 -11 10 -6 35 16 39 34 57 38
74 17 18 -21 -14 -49 -48 -42 -25 5 -25 5 -3 -6 35 -18 74 4 70 40 -3 23 -8
27 -39 30 -24 2 -43 -4 -62 -18z"/>
<path d="M1100 1379 c-13 -9 -12 -10 3 -5 12 4 17 0 17 -12 0 -23 -19 -42 -42
-42 -21 0 -22 4 -6 33 10 20 10 21 -5 8 -24 -19 -21 -48 5 -57 16 -5 27 0 45
20 38 45 25 85 -17 55z"/>
<path d="M1630 1328 c-18 -7 -21 -12 -10 -15 8 -3 22 -11 30 -19 23 -20 100
-23 100 -4 0 28 -82 55 -120 38z m86 -23 c18 -14 17 -14 -12 -15 -16 0 -39 7
-50 15 -18 14 -17 14 12 15 16 0 39 -7 50 -15z"/>
<path d="M1442 1312 c-9 -6 -1 -11 27 -16 22 -3 43 -11 46 -16 8 -13 -26 -13
-60 0 -16 6 -24 6 -20 0 8 -14 84 -32 103 -25 13 5 12 10 -9 30 -27 27 -68 39
-87 27z"/>
<path d="M1192 1275 c-24 -51 -11 -82 28 -70 22 7 27 44 10 76 -14 26 -25 24
-38 -6z m33 -15 c8 -24 -1 -40 -21 -40 -16 0 -17 5 -8 38 8 27 21 28 29 2z"/>
<path d="M760 1270 c-31 -31 -24 -40 28 -40 60 0 93 20 73 44 -19 23 -77 20
-101 -4z m75 -17 c-23 -16 -79 -18 -70 -2 10 15 46 27 69 21 18 -5 18 -6 1
-19z"/>
<path d="M476 1228 c-17 -25 -22 -78 -7 -78 17 0 41 43 41 72 0 34 -13 36 -34
6z m14 -38 c-18 -33 -25 -15 -9 22 9 23 15 28 17 16 2 -9 -2 -27 -8 -38z"/>
<path d="M551 1193 c10 -48 59 -87 59 -48 0 35 -38 85 -65 85 -1 0 1 -17 6
-37z m34 -13 c16 -30 9 -40 -13 -18 -12 12 -17 48 -7 48 2 0 11 -13 20 -30z"/>
<path d="M850 1190 c0 -32 21 -67 47 -79 55 -25 58 -2 7 57 -39 46 -54 52 -54
22z m45 -40 c32 -33 17 -42 -15 -10 -17 17 -27 40 -17 40 2 0 16 -13 32 -30z"/>
<path d="M780 1158 c-22 -24 -27 -63 -8 -74 17 -10 48 33 48 67 0 35 -12 37
-40 7z m20 -28 c-13 -30 -30 -41 -30 -17 0 16 30 60 37 53 3 -3 0 -19 -7 -36z"/>
<path d="M496 1108 c-11 -43 -7 -70 10 -66 25 5 38 31 30 61 -8 33 -31 35 -40
5z m28 -32 c-3 -9 -10 -16 -15 -16 -11 0 -12 21 -3 45 6 15 8 15 16 2 4 -8 5
-22 2 -31z"/>
<path d="M270 1081 l-35 -29 28 -7 c53 -14 95 12 81 50 -9 23 -36 18 -74 -14z
m55 -11 c0 -10 -12 -16 -35 -18 l-35 -4 20 22 c21 23 50 23 50 0z"/>
<path d="M225 1010 c-3 -5 -4 -14 0 -19 8 -15 62 -23 81 -13 14 8 14 10 -1 25
-18 19 -70 23 -80 7z m55 -10 c11 -7 6 -10 -20 -10 -26 0 -31 3 -20 10 8 5 17
10 20 10 3 0 12 -5 20 -10z"/>
</g>
</svg>
