<?xml version="1.0" standalone="no"?>
<!DOCTYPE svg PUBLIC "-//W3C//DTD SVG 20010904//EN"
 "http://www.w3.org/TR/2001/REC-SVG-20010904/DTD/svg10.dtd">
<svg version="1.0" xmlns="http://www.w3.org/2000/svg"
 width="512.000000pt" height="512.000000pt" viewBox="0 0 512.000000 512.000000"
 preserveAspectRatio="xMidYMid meet">

<g transform="translate(0.000000,512.000000) scale(0.100000,-0.100000)"
fill="#000000" stroke="none">
<path d="M2095 5106 c-184 -31 -295 -77 -395 -162 -156 -133 -255 -327 -285
-556 l-6 -47 -57 -16 c-228 -67 -385 -263 -399 -502 l-6 -92 -56 -37 c-198
-132 -307 -373 -273 -607 12 -83 44 -177 81 -238 19 -32 19 -33 1 -68 -56
-110 -68 -270 -31 -392 52 -166 179 -301 337 -358 l61 -23 33 -131 c155 -620
414 -1193 684 -1514 221 -264 493 -393 742 -354 44 7 124 16 179 20 212 18
346 112 456 323 103 198 150 426 169 808 15 309 35 428 97 580 69 168 168 274
300 322 50 18 91 23 283 29 187 6 236 10 290 28 126 40 185 120 184 247 -1
115 -65 233 -231 426 -14 15 -8 24 59 90 40 40 88 98 106 129 165 280 97 653
-155 853 l-63 50 0 86 c-1 211 -109 424 -283 555 -219 164 -489 202 -734 103
-29 -12 -54 -20 -56 -17 -2 2 -22 34 -45 70 -46 72 -159 186 -235 238 -77 52
-210 110 -315 137 -121 31 -317 40 -437 20z m399 -216 c192 -49 368 -180 450
-334 l19 -35 -52 -63 c-29 -35 -72 -104 -97 -154 l-44 -90 -73 -2 c-225 -4
-435 -165 -487 -374 -11 -43 -13 -45 -63 -57 -137 -31 -297 -158 -365 -288
-63 -121 -86 -270 -61 -396 l12 -57 -34 -37 c-138 -152 -166 -377 -71 -571 29
-60 116 -162 162 -188 l27 -16 -5 -293 c-5 -324 5 -518 44 -795 48 -346 122
-571 254 -774 50 -77 50 -78 18 -55 -253 176 -512 614 -710 1199 -44 132 -148
495 -148 520 0 32 -31 108 -54 129 -12 11 -61 34 -109 50 -168 56 -257 170
-259 332 -1 77 12 119 58 196 46 77 44 105 -11 184 -98 139 -111 301 -36 447
35 69 94 125 180 172 44 23 90 53 103 67 24 26 26 43 19 210 -4 88 24 158 89
223 52 52 102 74 205 90 148 23 162 40 169 222 4 92 10 139 26 180 61 162 213
307 370 352 138 40 334 42 474 6z m1101 -392 c121 -25 255 -119 324 -227 54
-83 72 -152 80 -301 4 -74 12 -144 18 -156 12 -21 66 -72 146 -137 60 -49 100
-108 127 -188 18 -52 21 -81 18 -159 -3 -84 -8 -104 -39 -170 -43 -90 -103
-154 -186 -198 -98 -51 -128 -103 -98 -165 9 -20 56 -77 104 -129 153 -164
225 -288 195 -336 -27 -42 -58 -47 -284 -44 -197 3 -221 1 -285 -19 -247 -76
-408 -248 -507 -539 -55 -162 -69 -262 -78 -555 -5 -148 -16 -313 -24 -365
-48 -304 -138 -479 -282 -553 l-32 -16 -6 77 c-30 364 -35 923 -11 1247 34
465 107 854 208 1103 l24 57 49 -2 c76 -2 206 -48 276 -98 153 -108 171 -118
214 -123 38 -4 47 -1 74 26 38 38 40 83 5 134 -49 72 -233 173 -431 235 -46
15 -84 29 -84 32 0 19 114 152 178 209 110 97 129 119 142 158 17 51 6 83 -35
100 -19 8 -44 14 -57 14 -63 0 -204 -113 -296 -238 -137 -186 -221 -349 -292
-570 l-36 -113 -66 68 c-112 117 -190 256 -227 409 -25 105 -29 112 -62 129
-42 22 -66 18 -105 -18 -52 -47 -55 -95 -15 -214 70 -212 192 -395 348 -526
84 -70 78 -46 49 -212 -21 -116 -54 -415 -66 -600 -20 -299 -12 -927 16 -1223
l6 -63 -29 7 c-108 25 -247 145 -322 277 -50 89 -120 288 -150 427 -63 299
-85 591 -76 1016 6 278 5 325 -8 351 -9 16 -54 64 -102 108 -111 100 -130 135
-130 240 0 100 20 146 102 237 34 36 64 79 67 95 4 16 -3 76 -14 133 -23 114
-21 150 12 238 22 59 109 157 167 186 18 10 77 29 130 42 53 14 104 33 114 43
10 10 27 53 38 96 25 98 46 139 96 188 73 74 100 82 254 79 165 -3 176 2 210
106 50 153 120 250 232 323 122 79 253 101 412 67z"/>
<path d="M3675 3618 c-75 -41 -74 -147 2 -183 113 -54 194 122 83 180 -34 18
-57 19 -85 3z"/>
</g>
</svg>
