<?xml version="1.0" standalone="no"?>
<!DOCTYPE svg PUBLIC "-//W3C//DTD SVG 20010904//EN"
 "http://www.w3.org/TR/2001/REC-SVG-20010904/DTD/svg10.dtd">
<svg version="1.0" xmlns="http://www.w3.org/2000/svg"
 width="980.000000pt" height="974.000000pt" viewBox="0 0 980.000000 974.000000"
 preserveAspectRatio="xMidYMid meet">

<g transform="translate(0.000000,974.000000) scale(0.100000,-0.100000)"
fill="#000000" stroke="none">
<path d="M3741 9730 c-62 -13 -167 -64 -219 -107 -25 -20 -173 -208 -343 -434
l-298 -397 -53 -6 c-29 -3 -251 -13 -493 -21 -313 -12 -457 -21 -500 -32 -161
-40 -294 -165 -344 -323 -12 -36 -55 -276 -96 -534 -41 -258 -76 -470 -78
-471 -1 -1 -193 -112 -426 -246 -233 -134 -444 -262 -469 -284 -61 -53 -118
-144 -144 -228 -16 -55 -19 -87 -16 -160 4 -87 13 -116 161 -556 87 -256 156
-470 153 -477 -3 -7 -118 -191 -257 -410 -139 -219 -263 -421 -275 -449 -58
-127 -53 -284 14 -418 40 -80 29 -69 480 -501 259 -248 292 -283 292 -310 0
-17 -16 -220 -35 -451 -47 -567 -46 -605 20 -735 34 -66 132 -166 200 -202 28
-14 264 -88 525 -163 261 -75 475 -137 476 -138 1 -1 84 -195 184 -432 100
-236 193 -452 207 -479 72 -142 265 -256 434 -256 21 0 259 45 529 100 l491
101 357 -293 c196 -160 381 -309 411 -330 150 -105 387 -107 538 -5 26 18 211
166 411 330 199 163 364 297 366 297 2 0 213 -43 468 -97 399 -83 476 -96 558
-96 72 0 110 6 154 22 108 39 198 111 259 207 13 22 109 240 213 485 l189 447
460 132 c253 73 489 146 525 163 83 38 184 139 223 220 16 32 35 90 43 128 14
65 12 99 -26 558 -22 268 -40 494 -40 502 0 8 159 167 354 353 195 187 363
351 374 365 99 134 127 318 71 466 -12 33 -140 247 -285 476 l-263 416 155
464 c148 440 156 469 161 560 5 80 2 109 -15 166 -26 84 -83 175 -144 228 -31
28 -763 461 -895 529 -1 1 -36 215 -78 476 -42 261 -85 501 -95 534 -51 154
-185 279 -344 320 -37 10 -195 20 -498 31 -244 9 -467 18 -496 21 l-53 6 -298
397 c-164 219 -316 412 -336 429 -136 112 -324 148 -478 93 -29 -10 -242 -109
-474 -220 -232 -110 -427 -201 -433 -201 -6 0 -106 46 -223 101 -513 246 -635
303 -687 321 -64 22 -186 31 -249 18z m645 -635 l515 -245 392 186 c215 103
448 213 515 245 123 59 165 69 203 48 11 -5 174 -216 363 -468 l344 -458 128
-6 c71 -4 327 -14 569 -23 309 -12 450 -21 473 -30 21 -9 37 -25 46 -46 7 -18
53 -282 101 -586 l89 -552 491 -283 c269 -155 500 -293 513 -306 13 -14 22
-37 22 -55 0 -17 -81 -274 -180 -570 l-180 -539 29 -46 c15 -25 151 -239 301
-476 150 -236 276 -441 282 -454 21 -55 8 -70 -370 -433 -202 -193 -390 -374
-419 -402 l-52 -51 44 -540 c25 -297 45 -561 45 -586 0 -34 -6 -52 -23 -70
-23 -26 -5 -20 -756 -237 l-375 -108 -193 -454 c-275 -650 -259 -616 -299
-635 -32 -15 -48 -12 -596 100 -466 96 -566 114 -583 104 -10 -6 -202 -161
-425 -343 -505 -413 -455 -376 -501 -376 -44 0 8 -39 -563 428 -197 161 -363
295 -370 298 -6 2 -264 -48 -574 -111 -547 -112 -564 -115 -596 -100 -40 19
-24 -15 -299 634 l-193 454 -547 158 c-300 87 -555 162 -565 168 -48 26 -48
37 -3 595 23 286 44 544 47 571 l6 50 -420 401 c-443 425 -444 426 -417 489 6
16 146 241 310 500 l298 469 -181 546 c-100 300 -182 555 -182 567 0 13 12 36
28 52 15 16 241 152 502 302 261 149 480 277 487 283 7 6 53 261 102 567 50
306 95 568 102 582 23 51 41 53 529 71 250 9 506 19 569 23 l113 6 344 458
c188 251 351 462 361 468 45 26 82 12 599 -234z"/>
<path d="M5858 6983 c-31 -34 -2340 -4019 -2346 -4050 -7 -38 25 -45 198 -41
155 3 160 4 183 28 14 14 546 925 1183 2025 823 1421 1158 2009 1159 2030 l0
30 -175 3 -176 2 -26 -27z"/>
<path d="M3555 6969 c-127 -31 -218 -82 -311 -174 -65 -64 -89 -97 -122 -165
-58 -118 -71 -179 -84 -380 -12 -195 -4 -677 13 -780 45 -277 227 -479 496
-551 110 -30 306 -30 417 0 220 59 390 212 461 418 36 104 44 176 51 463 7
293 -6 591 -31 685 -8 33 -34 98 -57 145 -55 113 -168 228 -278 282 -157 78
-379 100 -555 57z m356 -346 c111 -50 163 -132 179 -283 12 -121 13 -654 0
-783 -11 -109 -31 -164 -80 -221 -118 -134 -392 -134 -510 0 -81 93 -94 194
-87 689 5 377 10 418 60 494 34 51 86 90 150 113 71 25 222 21 288 -9z"/>
<path d="M5790 4980 c-129 -34 -215 -83 -307 -175 -66 -66 -90 -98 -122 -166
-63 -131 -71 -177 -83 -445 -12 -287 1 -682 27 -779 8 -33 34 -98 56 -144 54
-115 169 -231 281 -285 129 -62 217 -79 382 -74 117 4 154 9 221 31 204 67
353 210 420 404 44 126 50 193 50 608 0 415 -6 482 -50 608 -67 194 -215 336
-420 404 -69 23 -100 27 -230 30 -125 2 -162 0 -225 -17z m375 -352 c101 -53
149 -131 165 -270 6 -46 10 -227 10 -403 0 -445 -13 -530 -93 -613 -59 -62
-119 -85 -232 -90 -117 -5 -184 15 -253 73 -100 86 -117 201 -109 720 6 357
12 412 60 484 32 49 81 87 144 112 39 16 67 19 153 16 90 -3 112 -7 155 -29z"/>
</g>
</svg>
