<?xml version="1.0" standalone="no"?>
<!DOCTYPE svg PUBLIC "-//W3C//DTD SVG 20010904//EN"
 "http://www.w3.org/TR/2001/REC-SVG-20010904/DTD/svg10.dtd">
<svg version="1.0" xmlns="http://www.w3.org/2000/svg"
 width="225.000000pt" height="225.000000pt" viewBox="0 0 225.000000 225.000000"
 preserveAspectRatio="xMidYMid meet">

<g transform="translate(0.000000,225.000000) scale(0.100000,-0.100000)"
fill="#000000" stroke="none">
<path d="M1215 2193 c-23 -22 -15 -35 38 -63 60 -32 103 -72 127 -120 42 -83
36 -153 -22 -238 -34 -49 -34 -77 1 -77 28 0 84 74 101 133 33 121 -18 259
-123 330 -63 43 -103 55 -122 35z"/>
<path d="M1055 2094 c-28 -28 -17 -40 57 -68 60 -22 88 -56 88 -108 0 -36 -7
-48 -75 -117 -79 -81 -105 -128 -105 -187 0 -101 58 -181 151 -208 65 -19 89
-14 89 20 0 26 -5 29 -62 39 -72 11 -129 102 -113 177 4 17 38 63 85 112 46
49 82 98 90 120 30 93 -32 187 -146 222 -38 11 -46 11 -59 -2z"/>
<path d="M877 1831 c-72 -80 -106 -189 -87 -275 20 -90 78 -179 113 -174 32 4
32 32 -1 80 -75 112 -66 224 27 331 36 40 37 70 5 75 -14 2 -33 -10 -57 -37z"/>
<path d="M855 1280 c-353 -37 -602 -128 -661 -241 -40 -79 7 -333 96 -509 77
-154 202 -314 288 -368 65 -42 169 -77 293 -98 143 -24 467 -15 589 15 178 45
265 108 385 276 104 146 172 304 200 464 20 111 19 178 -3 221 -49 99 -247
181 -543 226 -121 18 -523 27 -644 14z m450 -60 c249 -18 432 -57 562 -120 89
-44 123 -77 123 -120 0 -43 -35 -77 -123 -119 -346 -167 -1136 -169 -1489 -4
-42 19 -89 48 -104 64 -163 171 428 342 1031 299z m-1007 -395 c81 -54 269
-107 482 -137 145 -20 565 -17 710 6 216 33 372 79 453 132 22 14 40 24 42 22
6 -6 -42 -173 -65 -228 -60 -141 -207 -349 -285 -401 -88 -60 -241 -96 -440
-105 -225 -10 -424 20 -547 82 -109 55 -254 246 -333 438 -30 74 -69 216 -59
216 3 0 21 -11 42 -25z"/>
<path d="M860 999 c-89 -10 -248 -42 -305 -61 -32 -11 -40 -18 -40 -38 0 -32
17 -31 180 4 263 57 606 57 884 0 69 -13 130 -23 138 -20 24 10 15 46 -14 57
-148 56 -592 87 -843 58z"/>
</g>
</svg>
