<?xml version="1.0" standalone="no"?>
<!DOCTYPE svg PUBLIC "-//W3C//DTD SVG 20010904//EN"
 "http://www.w3.org/TR/2001/REC-SVG-20010904/DTD/svg10.dtd">
<svg version="1.0" xmlns="http://www.w3.org/2000/svg"
 width="860.000000pt" height="899.000000pt" viewBox="0 0 860.000000 899.000000"
 preserveAspectRatio="xMidYMid meet">
<metadata>
Created by potrace 1.16, written by Peter Selinger 2001-2019
</metadata>
<g transform="translate(0.000000,899.000000) scale(0.100000,-0.100000)"
fill="#000000" stroke="none">
<path d="M4095 8584 c-22 -2 -96 -9 -165 -14 -263 -23 -606 -98 -876 -191
-996 -344 -1840 -1079 -2318 -2019 -231 -453 -367 -909 -418 -1400 -16 -161
-16 -579 0 -740 117 -1122 713 -2152 1647 -2846 569 -423 1263 -693 1965 -766
161 -16 579 -16 740 0 1119 116 2145 708 2838 1637 430 578 700 1266 774 1975
16 161 16 579 0 740 -116 1119 -708 2145 -1637 2838 -329 245 -711 447 -1101
582 -252 87 -592 162 -859 190 -104 11 -521 21 -590 14z m660 -748 c61 -9 157
-25 215 -37 1303 -255 2279 -1230 2539 -2535 48 -240 55 -334 55 -674 0 -340
-7 -434 -55 -674 -145 -728 -515 -1366 -1069 -1838 -399 -341 -920 -588 -1466
-697 -240 -48 -334 -55 -674 -55 -340 0 -434 7 -674 55 -1303 259 -2276 1232
-2535 2535 -48 240 -55 334 -55 674 0 340 7 434 55 674 145 728 515 1366 1069
1838 466 398 1098 667 1730 738 52 5 111 12 130 14 89 10 631 -3 735 -18z"/>
<path d="M4770 7210 c-201 -25 -372 -167 -440 -366 -68 -196 -17 -409 134
-560 249 -249 645 -206 842 91 101 152 111 366 27 543 -34 71 -159 200 -228
235 -99 50 -224 71 -335 57z"/>
<path d="M4208 5397 l-618 -101 -24 -72 -24 -72 117 -4 c131 -4 174 -20 228
-82 44 -50 57 -96 49 -182 -10 -113 -46 -245 -330 -1219 -294 -1012 -300
-1034 -316 -1157 -62 -469 403 -712 905 -473 163 78 373 260 525 456 108 140
280 401 280 426 0 8 -69 51 -111 71 -4 1 -44 -50 -89 -115 -110 -155 -181
-242 -273 -331 -116 -112 -181 -130 -244 -67 l-36 36 6 72 c8 96 2 77 431
1562 206 715 378 1312 381 1328 l7 27 -123 -1 c-106 -1 -213 -16 -741 -102z"/>
</g>
</svg>
