<?xml version="1.0" standalone="no"?>
<!DOCTYPE svg PUBLIC "-//W3C//DTD SVG 20010904//EN"
 "http://www.w3.org/TR/2001/REC-SVG-20010904/DTD/svg10.dtd">
<svg version="1.0" xmlns="http://www.w3.org/2000/svg"
 width="257.000000pt" height="196.000000pt" viewBox="0 0 257.000000 196.000000"
 preserveAspectRatio="xMidYMid meet">

<g transform="translate(0.000000,196.000000) scale(0.100000,-0.100000)"
fill="#000000" stroke="none">
<path d="M1130 1420 c-224 -20 -469 -87 -602 -165 -139 -82 -148 -86 -228 -94
-83 -9 -124 -27 -172 -78 -77 -80 -78 -220 -3 -319 38 -50 102 -75 210 -83 85
-7 99 -11 162 -49 192 -113 427 -171 739 -179 349 -10 621 44 854 169 87 47
102 52 185 58 106 9 157 30 208 90 93 109 67 278 -55 353 -34 21 -67 31 -122
38 -81 9 -85 10 -194 76 -234 141 -623 213 -982 183z m443 -65 c212 -28 394
-87 519 -167 87 -56 122 -70 205 -78 51 -5 83 -14 106 -30 114 -78 114 -235 0
-314 -36 -25 -53 -29 -140 -35 -94 -7 -104 -10 -179 -53 -131 -75 -282 -126
-474 -160 -101 -18 -509 -18 -610 0 -195 35 -335 81 -479 160 -75 40 -94 46
-171 52 -136 12 -195 52 -221 151 -30 115 64 227 191 229 58 1 98 16 190 71
167 100 280 135 590 182 69 11 370 6 473 -8z"/>
<path d="M1125 1279 c-185 -21 -370 -86 -471 -167 -61 -48 -104 -126 -104
-186 1 -162 219 -299 549 -347 53 -7 147 -10 260 -6 152 4 192 9 291 35 250
64 399 184 400 321 1 231 -451 402 -925 350z m358 -54 c137 -18 212 -38 315
-86 95 -44 135 -74 175 -132 80 -118 -23 -247 -259 -326 -399 -134 -983 -38
-1094 180 -36 70 -21 129 53 196 101 93 255 146 512 176 72 9 198 6 298 -8z"/>
<path d="M1068 1150 c-97 -29 -156 -137 -129 -237 47 -174 286 -192 362 -28
70 150 -74 313 -233 265z m112 -56 c169 -68 74 -317 -101 -265 -118 36 -129
210 -16 262 52 23 66 23 117 3z"/>
<path d="M1778 860 c-79 -53 -186 -90 -365 -126 -15 -3 -23 -12 -23 -24 0 -16
7 -20 34 -20 95 0 347 91 414 149 23 20 27 51 7 57 -5 2 -36 -14 -67 -36z"/>
</g>
</svg>
