<?xml version="1.0" standalone="no"?>
<!DOCTYPE svg PUBLIC "-//W3C//DTD SVG 20010904//EN"
 "http://www.w3.org/TR/2001/REC-SVG-20010904/DTD/svg10.dtd">
<svg version="1.0" xmlns="http://www.w3.org/2000/svg"
 width="225.000000pt" height="225.000000pt" viewBox="0 0 225.000000 225.000000"
 preserveAspectRatio="xMidYMid meet">

<g transform="translate(0.000000,225.000000) scale(0.100000,-0.100000)"
fill="#000000" stroke="none">
<path d="M1075 1814 c-68 -17 -125 -54 -125 -80 0 -7 9 -28 19 -46 33 -56 36
-107 9 -147 -31 -45 -176 -130 -189 -110 -15 24 -10 73 11 114 27 53 26 60
-16 85 -69 43 -196 37 -258 -11 l-26 -20 21 -42 c27 -53 29 -109 6 -135 -10
-11 -54 -41 -97 -66 -99 -57 -143 -96 -178 -155 -36 -62 -38 -164 -5 -228 l23
-43 -100 0 c-98 0 -100 0 -100 -23 0 -20 9 -26 61 -41 89 -25 150 -58 231
-129 75 -66 113 -89 161 -101 26 -6 27 -9 27 -69 0 -34 4 -68 8 -75 7 -10 128
-12 573 -10 l564 3 3 71 3 71 52 16 c38 12 74 36 131 87 84 74 169 122 255
142 44 10 51 15 49 32 -3 19 -11 21 -95 24 l-92 3 22 42 c17 32 22 59 22 112
0 115 -50 181 -205 271 -43 25 -87 55 -97 66 -23 26 -21 82 6 135 l21 42 -26
20 c-62 48 -189 54 -258 11 -42 -25 -43 -32 -16 -85 23 -45 26 -97 7 -113 -19
-16 -165 73 -191 116 -17 30 -18 39 -7 87 7 29 19 59 27 65 50 42 -35 107
-149 115 -34 2 -71 2 -82 -1z m164 -60 c26 -11 32 -18 26 -31 -41 -96 -45
-152 -15 -200 21 -36 67 -70 162 -123 85 -47 180 -143 196 -196 25 -87 10
-178 -40 -238 l-29 -36 -408 0 -408 0 -26 38 c-14 20 -31 50 -36 65 -17 45
-13 147 8 192 24 54 117 137 208 187 171 94 195 153 129 310 -5 11 -1 20 16
29 55 30 148 32 217 3z m-504 -148 l34 -15 -14 -35 c-18 -42 -19 -109 -4 -138
10 -18 4 -27 -41 -70 -105 -100 -133 -237 -73 -358 l30 -60 -173 0 -173 0 -25
43 c-33 58 -40 99 -25 160 15 64 83 135 177 185 34 18 75 44 91 58 52 44 63
117 26 187 -14 28 -14 29 18 42 42 18 109 19 152 1z m951 -1 c34 -14 34 -15
19 -38 -9 -14 -18 -46 -21 -73 -8 -68 20 -106 119 -165 108 -64 153 -103 179
-152 39 -75 25 -180 -33 -238 -17 -17 -34 -19 -184 -19 -91 0 -165 3 -165 6 0
3 9 19 20 34 29 41 53 143 45 193 -11 71 -50 143 -105 195 -45 43 -51 52 -41
70 15 29 14 96 -4 138 l-14 35 32 14 c42 19 109 19 153 0z m287 -754 c-29 -16
-81 -55 -115 -86 -108 -98 -45 -90 -711 -93 -396 -2 -601 1 -627 8 -26 7 -68
35 -116 77 -41 36 -99 78 -127 94 l-52 29 900 0 900 0 -52 -29z m-313 -276 l0
-55 -535 0 -535 0 0 55 0 55 535 0 535 0 0 -55z"/>
<path d="M940 1344 c-87 -84 -110 -124 -72 -124 20 0 195 177 189 193 -9 27
-34 13 -117 -69z"/>
<path d="M1214 1419 c-8 -13 175 -201 191 -196 27 9 8 40 -73 120 -89 87 -105
97 -118 76z"/>
<path d="M1121 1396 c-8 -9 -11 -54 -9 -137 3 -116 4 -124 23 -124 19 0 20 8
23 126 2 98 0 129 -11 138 -11 9 -17 8 -26 -3z"/>
<path d="M496 1261 c-72 -72 -87 -101 -53 -101 19 0 157 143 157 163 0 32 -25
17 -104 -62z"/>
<path d="M1673 1324 c-4 -11 17 -39 68 -90 73 -73 91 -84 105 -63 6 11 -142
169 -159 169 -4 0 -10 -7 -14 -16z"/>
</g>
</svg>
