<?xml version="1.0" standalone="no"?>
<!DOCTYPE svg PUBLIC "-//W3C//DTD SVG 20010904//EN"
 "http://www.w3.org/TR/2001/REC-SVG-20010904/DTD/svg10.dtd">
<svg version="1.0" xmlns="http://www.w3.org/2000/svg"
 width="225.000000pt" height="225.000000pt" viewBox="0 0 225.000000 225.000000"
 preserveAspectRatio="xMidYMid meet">

<g transform="translate(0.000000,225.000000) scale(0.100000,-0.100000)"
fill="#000000" stroke="none">
<path d="M1010 2215 c0 -34 1 -35 40 -35 l40 0 0 -58 0 -58 -92 -13 c-219 -28
-394 -117 -558 -281 -175 -175 -263 -363 -286 -609 l-7 -71 -54 0 c-95 0 -107
-19 -77 -119 18 -61 69 -123 128 -154 36 -19 62 -22 215 -27 l174 -5 -46 -37
-45 -38 -221 0 -221 0 0 -35 0 -35 188 -2 187 -3 0 -280 0 -280 -187 -3 -188
-2 0 -35 0 -35 213 0 c152 0 216 3 225 12 7 7 12 39 12 75 l0 62 483 3 c473 3
483 3 522 25 49 26 501 399 538 443 21 25 27 42 27 81 0 28 -4 59 -10 69 -8
15 -5 19 27 25 91 17 172 90 198 179 28 94 14 116 -74 116 l-58 0 -7 73 c-17
172 -84 356 -180 491 -63 88 -199 212 -294 270 -102 61 -249 111 -369 127
l-93 13 0 58 0 58 40 0 c39 0 40 1 40 35 l0 35 -115 0 -115 0 0 -35z m335
-254 c374 -97 647 -422 678 -808 l5 -63 -904 0 -905 0 6 63 c39 375 278 680
623 792 151 49 344 55 497 16z m819 -973 c-11 -38 -42 -75 -82 -100 l-37 -23
-920 0 -920 0 -37 23 c-40 25 -71 62 -82 100 l-7 22 1046 0 1046 0 -7 -22z
m-944 -218 c21 -21 25 -47 12 -66 -18 -27 -56 -34 -196 -34 l-144 0 -31 -31
c-43 -43 -44 -104 -2 -151 l29 -33 254 -3 254 -3 219 157 c121 87 232 162 247
168 23 8 32 7 55 -10 31 -23 38 -43 29 -79 -4 -15 -95 -97 -254 -228 -136
-112 -258 -210 -272 -218 -20 -11 -114 -15 -497 -17 l-473 -3 1 203 0 203 86
70 c47 39 95 75 107 82 15 9 98 12 289 13 254 0 268 -1 287 -20z m514 11 c-5
-5 -89 -65 -186 -135 l-178 -126 -216 0 c-220 0 -254 5 -254 38 0 37 20 42
162 42 158 0 196 10 228 62 16 25 20 45 17 81 l-4 47 220 0 c128 0 217 -4 211
-9z"/>
<path d="M955 1893 c-126 -27 -316 -123 -378 -190 -16 -19 -16 -21 7 -43 l25
-22 62 46 c112 84 244 136 387 152 l62 7 0 33 c0 34 0 34 -47 33 -27 0 -79 -7
-118 -16z"/>
<path d="M478 1598 c-40 -53 -40 -55 -10 -77 l29 -20 31 41 32 42 -22 23 c-28
30 -31 29 -60 -9z"/>
<path d="M111 339 c-87 -86 15 -228 125 -175 106 50 67 206 -51 206 -35 0 -49
-6 -74 -31z m110 -60 c9 -18 7 -25 -9 -41 -16 -16 -23 -18 -41 -9 -23 13 -28
40 -9 59 19 19 46 14 59 -9z"/>
</g>
</svg>
