<?xml version="1.0" standalone="no"?>
<!DOCTYPE svg PUBLIC "-//W3C//DTD SVG 20010904//EN"
 "http://www.w3.org/TR/2001/REC-SVG-20010904/DTD/svg10.dtd">
<svg version="1.0" xmlns="http://www.w3.org/2000/svg"
 width="225.000000pt" height="225.000000pt" viewBox="0 0 225.000000 225.000000"
 preserveAspectRatio="xMidYMid meet">

<g transform="translate(0.000000,225.000000) scale(0.100000,-0.100000)"
fill="#000000" stroke="none">
<path d="M1320 2231 c-51 -26 -80 -74 -80 -130 l0 -46 -69 0 c-66 0 -72 -2
-106 -35 -35 -34 -55 -81 -55 -131 0 -25 -1 -25 -57 -21 -48 3 -64 0 -92 -20
-69 -47 -71 -59 -71 -383 l0 -290 -107 -107 -107 -107 24 -26 24 -26 111 111
110 110 330 0 c312 0 332 1 363 20 60 37 91 126 62 179 -8 17 -4 19 46 23 61
5 96 26 132 78 24 35 29 97 12 131 -9 15 -7 19 6 19 24 0 82 38 96 63 38 71
26 138 -33 192 l-41 37 30 31 c44 47 62 90 62 147 0 65 -18 108 -63 147 -83
72 -189 68 -275 -10 -27 -25 -47 -37 -49 -30 -9 26 -44 61 -77 77 -45 21 -83
20 -126 -3z m93 -63 c32 -17 46 -39 47 -75 1 -85 32 -84 126 7 69 67 74 70
121 70 75 0 123 -47 123 -122 0 -40 -15 -63 -92 -145 -51 -54 -58 -65 -48 -83
8 -15 21 -20 51 -20 51 0 73 -12 88 -49 10 -24 10 -34 -3 -59 -19 -38 -32 -42
-121 -42 -54 0 -76 -4 -86 -16 -17 -21 -1 -46 38 -56 64 -17 87 -84 43 -128
-18 -18 -33 -20 -134 -20 -87 0 -116 -3 -126 -15 -19 -23 -7 -49 29 -61 38
-12 71 -47 71 -75 0 -10 -11 -31 -24 -46 l-24 -28 -286 -3 c-157 -2 -286 0
-286 5 0 4 14 22 32 40 l32 33 128 0 128 0 0 35 0 35 -85 0 c-47 0 -85 4 -85
9 0 5 34 41 76 80 l76 71 99 0 99 0 0 35 0 35 -62 0 -62 0 74 75 74 75 83 0
83 0 0 35 0 35 -47 0 -48 0 83 83 83 83 -26 24 -26 24 -79 -79 -80 -80 0 48 0
47 -40 0 -40 0 0 -88 0 -88 -75 -74 -75 -74 0 67 0 67 -35 0 -35 0 0 -102 0
-103 -72 -72 c-40 -40 -76 -73 -80 -73 -5 0 -8 36 -8 80 l0 80 -35 0 -35 0 0
-122 0 -122 -32 -33 c-18 -18 -36 -33 -40 -33 -4 0 -8 110 -8 245 l0 246 25
24 c27 28 70 32 97 11 10 -7 23 -30 30 -52 8 -24 20 -40 32 -42 36 -7 46 24
46 144 0 110 1 113 26 133 48 38 106 18 122 -41 10 -40 34 -57 56 -39 13 11
16 35 16 123 0 115 8 144 43 158 30 12 35 12 60 -2z"/>
<path d="M830 2175 c0 -33 2 -35 35 -35 33 0 35 2 35 35 0 33 -2 35 -35 35
-33 0 -35 -2 -35 -35z"/>
<path d="M220 2138 c-52 -36 -73 -71 -78 -131 -5 -68 16 -117 68 -154 31 -23
39 -36 49 -85 42 -203 318 -204 362 -1 9 43 20 64 41 81 94 78 77 231 -33 287
-41 21 -117 19 -156 -5 l-33 -20 -36 25 c-50 34 -136 35 -184 3z m158 -78 c51
-36 63 -37 110 -5 42 29 71 31 112 10 36 -18 50 -43 50 -86 0 -24 -11 -43 -50
-82 -45 -45 -50 -55 -50 -95 0 -37 -6 -50 -34 -78 -28 -28 -41 -34 -78 -34
-24 0 -54 7 -67 16 -29 20 -51 72 -51 118 0 30 -7 40 -44 68 -53 39 -71 74
-62 122 14 76 93 98 164 46z"/>
<path d="M2020 1987 c0 -27 5 -35 30 -44 62 -23 62 -107 -1 -133 -24 -10 -29
-18 -29 -46 0 -29 4 -34 23 -34 60 0 127 76 127 145 0 69 -67 145 -127 145
-19 0 -23 -5 -23 -33z"/>
<path d="M0 1800 c0 -39 1 -40 35 -40 34 0 35 1 35 40 0 39 -1 40 -35 40 -34
0 -35 -1 -35 -40z"/>
<path d="M80 1650 c0 -39 1 -40 35 -40 34 0 35 1 35 40 0 39 -1 40 -35 40 -34
0 -35 -1 -35 -40z"/>
<path d="M234 1486 c-33 -15 -74 -60 -74 -82 0 -7 -16 -16 -36 -20 -20 -4 -51
-20 -70 -36 -105 -92 -40 -258 100 -258 l35 0 3 -72 3 -73 105 0 105 0 3 73 3
72 35 0 c70 0 133 48 149 113 19 73 -35 159 -109 178 -32 8 -47 18 -60 43 -34
64 -122 92 -192 62z m116 -86 c11 -11 20 -29 20 -39 0 -30 28 -51 68 -51 73 0
108 -75 57 -125 -24 -25 -27 -25 -194 -25 -162 0 -171 1 -196 23 -58 49 -24
127 55 127 40 0 53 10 65 50 4 14 14 33 23 43 21 24 77 22 102 -3z m-10 -350
l0 -40 -40 0 -40 0 0 40 0 40 40 0 40 0 0 -40z"/>
<path d="M1880 1399 c-98 -44 -150 -127 -150 -236 1 -150 103 -256 250 -257
112 -2 203 57 247 162 24 55 20 150 -7 206 -27 56 -96 119 -148 134 -60 18
-141 14 -192 -9z m190 -69 c58 -30 93 -81 98 -145 6 -71 -2 -97 -40 -140 -74
-85 -182 -94 -265 -22 -44 39 -63 82 -63 142 0 137 148 227 270 165z"/>
<path d="M1940 1262 c-72 -36 -86 -109 -34 -172 52 -61 150 -46 180 27 28 65
0 126 -69 152 -36 14 -36 14 -77 -7z m75 -97 c0 -27 -3 -30 -30 -30 -21 0 -31
5 -33 18 -5 25 17 49 42 45 16 -2 21 -10 21 -33z"/>
<path d="M1405 1036 c-37 -16 -70 -52 -84 -89 -17 -43 -14 -47 29 -47 32 0 40
4 40 18 0 28 32 52 68 52 34 0 72 -29 72 -55 0 -11 11 -15 40 -15 46 0 48 6
20 68 -31 67 -116 99 -185 68z"/>
<path d="M1050 975 c0 -33 2 -35 35 -35 33 0 35 2 35 35 0 33 -2 35 -35 35
-33 0 -35 -2 -35 -35z"/>
<path d="M11 806 c-8 -10 -9 -37 -1 -103 36 -323 253 -579 572 -674 69 -21 96
-23 487 -27 454 -4 533 2 661 47 106 37 180 83 269 166 83 78 155 182 194 277
43 108 69 266 51 312 -6 14 -113 16 -1114 16 -930 0 -1109 -2 -1119 -14z
m2159 -88 c0 -56 -29 -159 -66 -235 -90 -189 -274 -338 -475 -387 -94 -23
-911 -23 -1009 0 -196 46 -378 191 -472 377 -33 65 -68 192 -68 244 l0 33
1045 0 1045 0 0 -32z"/>
</g>
</svg>
